<svg xmlns="http://www.w3.org/2000/svg" viewBox="0 0 96 62.74" fill="#fff" xmlns:v="https://vecta.io/nano"><path d="M23.79 3.58l-2.61 7.29-5.13 15.29 5-21.11L17 3.59 5.15 36.28 8 37.38l2.6-7.28c1.37-3.75 2.83-8.16 5.12-15.22l-5 21 4 1.47L26.68 4.68zM31 18.44l-5.48 15.14a10.59 10.59 0 0 1-2.17.72 3.18 3.18 0 0 1 .19-.77l8.92-24.66c.82-2.21 1.22-2.21 1.54-2.21s.64.09.64.83a11.57 11.57 0 0 1-.85 3.23l-.31.81 3 1.09.24-.72a13.46 13.46 0 0 0 1-4.6 3.76 3.76 0 0 0-1-2.69 3.45 3.45 0 0 0-2.58-1 3.78 3.78 0 0 0-2.9 1.21 11.68 11.68 0 0 0-2.17 4L20.5 32.49c-.64 1.79-.67 3.18-.07 4a2.09 2.09 0 0 0 1.81.84c1.39 0 2.16-.87 3.81-2.77l2.19.78L34 19.53zm.96 17.75l3.29 1.19 2.46-6.72-3.28-1.18-2.47 6.71zm13.98-4.1c-.82 2.22-1.22 2.22-1.54 2.22s-.64-.1-.64-.83a11.35 11.35 0 0 1 .86-3.24l7.74-21.37c.83-2.21 1.23-2.21 1.55-2.21s.63.09.63.83a11.57 11.57 0 0 1-.85 3.23l-.3.81 3 1.09.24-.72a13.5 13.5 0 0 0 1-4.6 3.8 3.8 0 0 0-1-2.69 3.48 3.48 0 0 0-2.58-1 3.75 3.75 0 0 0-2.9 1.21 11.51 11.51 0 0 0-2.18 4L42.36 27.1c-1.49 4.14-1.64 5.13-1.64 6.57a3.76 3.76 0 0 0 1 2.68 3.43 3.43 0 0 0 2.58 1 3.79 3.79 0 0 0 2.9-1.22 11.54 11.54 0 0 0 2.18-4l1-2.88-3-1zM76.83 8.87c.82-2.21 1.22-2.21 1.54-2.21s.64.09.64.83a11.3 11.3 0 0 1-.86 3.23l-.3.81 3 1.09.25-.72a13.46 13.46 0 0 0 1-4.6 3.8 3.8 0 0 0-1-2.69l-.18-.17 1.21-3.35L79.14 0l-1.32 3.67a3.79 3.79 0 0 0-2.08 1 7.67 7.67 0 0 0-1.9 3.14C72.69 11 72.32 15.85 72 20.58c-.33 4.56-.65 8.87-1.61 11.51-.83 2.22-1.23 2.22-1.55 2.22s-.63-.1-.63-.83a11.57 11.57 0 0 1 .79-3.23l.31-.81-3-1.1-.24.73a13.46 13.46 0 0 0-1 4.6 3.91 3.91 0 0 0 .93 2.58l-1.19 3.27 3 1.09L69 37.34a3.92 3.92 0 0 0 2.47-1 7.57 7.57 0 0 0 1.91-3.14c1.15-3.17 1.51-8.07 1.86-12.8h-.18.18c.31-4.58.63-8.88 1.59-11.53zm16.18-5.28l-5.59 15.42h-2l5.19-14.33-2.99-1.09-11.88 32.7 2.99 1.09 5.59-15.33h2l-5.18 14.24 2.99 1.09L96 4.68l-2.99-1.09zm-27.62.01L51 36.28l3 1.09 6.47-15.32h1.13L57.38 36.3l3 1.08 9.27-32.22zM62.78 19H61.5l4.74-11.55.2.08L62.84 19zM10.85 57.16l11.12-.66 67.83-7.08-.16-2.93H.16v2.93h40.49l39.22-.8-29.65 1.99L0 55.85l.07 2.94 71.27 3.95.17-2.92-49.54-2.75-11.12.09z"/></svg>